<svg width="334" height="70" viewBox="0 0 334 70" xmlns="http://www.w3.org/2000/svg"><g id="Page-1" stroke="none" stroke-width="1" fill="none" fill-rule="evenodd"><g id="Artboard" fill="#CECECE" fill-rule="nonzero"><g id="logo" transform="translate(.738)"><path d="M114.055 54V31.57l-.352-22.535L132.687 54h3.34l19.055-45.14-.352 22.85V54h4.325V2.812h-5.766l-18.95 45.176-18.878-45.175h-5.73V54h4.324zm68.383.703c3.305 0 6.246-.797 8.825-2.39 2.578-1.594 4.576-3.862 5.994-6.803 1.418-2.942 2.127-6.252 2.127-9.932V34.7c0-5.86-1.57-10.564-4.711-14.115-3.141-3.55-7.243-5.326-12.305-5.326-3.281 0-6.217.814-8.807 2.443-2.59 1.63-4.593 3.908-6.011 6.838-1.418 2.93-2.127 6.223-2.127 9.879v.844c0 5.86 1.576 10.564 4.728 14.115 3.153 3.55 7.248 5.326 12.287 5.326zm0-3.55c-3.82 0-6.908-1.46-9.263-4.378-2.356-2.918-3.534-6.65-3.534-11.197v-.773c0-4.758 1.184-8.608 3.551-11.55 2.367-2.94 5.426-4.411 9.176-4.411 2.508 0 4.734.662 6.68 1.986 1.945 1.324 3.457 3.193 4.535 5.608 1.078 2.414 1.617 5.074 1.617 7.98v.809c0 4.78-1.178 8.63-3.533 11.548-2.356 2.918-5.432 4.377-9.229 4.377zM209.478 54V0h-4.219v54h4.22zm21.063.703c5.227 0 9.188-1.922 11.883-5.766L242.6 54h3.938V0h-4.184v21.34c-2.695-4.055-6.61-6.082-11.742-6.082-4.524 0-8.104 1.752-10.74 5.256-2.637 3.504-3.956 8.209-3.956 14.115v.492c0 6 1.342 10.764 4.026 14.291 2.683 3.527 6.217 5.291 10.6 5.291zm.774-3.656c-3.54 0-6.281-1.4-8.227-4.201-1.945-2.801-2.918-6.627-2.918-11.479 0-5.414.985-9.51 2.953-12.287 1.97-2.777 4.723-4.166 8.262-4.166 5.133 0 8.79 2.473 10.969 7.418v17.86c-2.18 4.57-5.86 6.855-11.04 6.855zM256.948 7.77c.891 0 1.6-.27 2.127-.81.528-.538.791-1.206.791-2.003 0-.797-.263-1.47-.79-2.021-.528-.551-1.237-.827-2.128-.827-.89 0-1.593.276-2.109.827-.516.55-.773 1.224-.773 2.021 0 .797.257 1.465.773 2.004.516.539 1.219.809 2.11.809zM259.023 54V15.96h-4.22V54h4.22zm12.309 0V27.95c.961-2.766 2.443-4.964 4.447-6.593 2.004-1.628 4.307-2.443 6.909-2.443 3.117 0 5.384.832 6.802 2.496 1.418 1.664 2.139 4.195 2.162 7.594V54h4.184V29.04c-.024-4.595-1.031-8.04-3.024-10.337-1.992-2.297-5.027-3.445-9.105-3.445-2.578 0-4.934.615-7.066 1.846-2.133 1.23-3.914 3.017-5.344 5.36l-.14-6.503h-4.009V54h4.184zm45.778 15.152c4.688 0 8.402-1.43 11.145-4.289 2.742-2.86 4.113-6.738 4.113-11.636V15.96h-3.938l-.21 5.484c-2.696-4.125-6.633-6.187-11.813-6.187-4.523 0-8.103 1.74-10.74 5.22-2.637 3.481-3.955 8.198-3.955 14.15v.563c0 5.977 1.336 10.723 4.008 14.239 2.671 3.515 6.21 5.273 10.617 5.273 5.156 0 9.082-1.875 11.777-5.625v4.781c-.07 3.68-1.09 6.557-3.059 8.631-1.968 2.074-4.71 3.112-8.226 3.112-4.102 0-7.64-1.829-10.617-5.485l-2.356 2.531c1.383 1.97 3.276 3.545 5.678 4.729a16.927 16.927 0 007.576 1.775zm0-18.105c-3.539 0-6.281-1.4-8.226-4.201-1.946-2.801-2.918-6.627-2.918-11.479 0-5.414.984-9.51 2.953-12.287 1.969-2.777 4.722-4.166 8.261-4.166 2.602 0 4.829.639 6.68 1.916 1.852 1.277 3.27 3.135 4.254 5.572v17.684c-2.156 4.64-5.824 6.96-11.004 6.96z" id="Molding"/><path d="M23.66 54l6.715-29.18L37.23 54h12.797L60.891 2.812H48.656l-5.87 32.098-7.138-32.097H25.172L18.14 34.91 12.27 2.813H0L10.898 54H23.66zm50.594.703c3.328 0 6.346-.703 9.053-2.11 2.707-1.406 4.816-3.386 6.328-5.94 1.511-2.555 2.267-5.462 2.267-8.72V2.814H79.598v35.12c0 2.297-.463 4.085-1.389 5.362-.926 1.277-2.244 1.916-3.955 1.916-1.899 0-3.252-.527-4.06-1.582-.81-1.055-1.214-2.754-1.214-5.098H56.605c0 5.157 1.547 9.14 4.641 11.953 3.094 2.813 7.43 4.22 13.008 4.22z" id="WJ"/></g></g></g></svg>