<svg width="221" height="45" viewBox="0 0 221 45" xmlns="http://www.w3.org/2000/svg"><g id="Artboard" stroke="none" stroke-width="1" fill="none" fill-rule="evenodd"><g id="Group" transform="translate(.232 .68)" fill="#000" fill-rule="nonzero"><path d="M52.38 35.64l.396-25.872L58.76 35.64h2.816l6.028-25.872L68 35.64h4.004L71.344 0h-4.84l-6.336 28.908L53.876 0h-4.884l-.66 35.64h4.048zm30.152.352c1.877 0 3.351-.381 4.422-1.144 1.07-.763 1.833-1.848 2.288-3.256.454-1.408.682-3.065.682-4.972v-7.392c0-1.907-.228-3.564-.682-4.972-.455-1.408-1.218-2.493-2.288-3.256-1.07-.763-2.545-1.144-4.422-1.144-1.878 0-3.359.381-4.444 1.144-1.086.763-1.856 1.848-2.31 3.256-.455 1.408-.682 3.065-.682 4.972v7.392c0 1.907.227 3.564.682 4.972.454 1.408 1.224 2.493 2.31 3.256 1.085.763 2.566 1.144 4.444 1.144zm0-3.476c-.91 0-1.555-.264-1.936-.792-.382-.528-.609-1.225-.682-2.09a32.065 32.065 0 01-.11-2.706v-7.964c0-.968.036-1.877.11-2.728.073-.85.3-1.547.682-2.09.381-.543 1.026-.814 1.936-.814.91 0 1.547.271 1.914.814.366.543.586 1.24.66 2.09.073.85.11 1.76.11 2.728v7.964c0 .939-.037 1.84-.11 2.706-.074.865-.294 1.562-.66 2.09-.367.528-1.005.792-1.914.792zm15.324 3.124V0h-4.708v35.64h4.708zm9.296.352c.85 0 1.606-.183 2.266-.55a7.623 7.623 0 001.826-1.43v1.628h4.708V0h-4.708v11.836a8.148 8.148 0 00-1.892-1.408 4.817 4.817 0 00-2.332-.572c-1.73 0-3.043.499-3.938 1.496-.894.997-1.503 2.325-1.826 3.982-.322 1.657-.484 3.454-.484 5.39v4.928c0 3.755.528 6.417 1.584 7.986 1.056 1.57 2.655 2.354 4.796 2.354zm1.188-3.696c-.821 0-1.437-.271-1.848-.814-.41-.543-.682-1.29-.814-2.244a23.393 23.393 0 01-.198-3.19v-7.172c0-1.467.19-2.72.572-3.762.382-1.041 1.115-1.562 2.2-1.562.587 0 1.13.11 1.628.33.499.22.954.477 1.364.77v16.676a6.371 6.371 0 01-1.496.726 4.583 4.583 0 01-1.408.242zm15.852-25.872V1.496h-4.708v4.928h4.708zm0 29.216V10.208h-4.708V35.64h4.708zm8.24 0V15.136a9.935 9.935 0 011.65-1.122c.573-.308 1.123-.462 1.65-.462.822 0 1.365.25 1.629.748.264.499.396 1.203.396 2.112V35.64h4.708V15.048a9 9 0 00-.33-2.42c-.22-.792-.602-1.452-1.144-1.98-.543-.528-1.328-.792-2.354-.792-1.232 0-2.362.279-3.388.836a13.724 13.724 0 00-2.816 2.024v-2.508h-4.708V35.64h4.708zm19.68 7.876c1.996 0 3.646-.235 4.95-.704 1.306-.47 2.282-1.18 2.927-2.134.645-.953.968-2.12.968-3.498 0-1.907-.484-3.373-1.452-4.4-.968-1.027-2.45-1.628-4.444-1.804l-3.96-.352c-.733-.059-1.269-.183-1.606-.374-.337-.19-.506-.447-.506-.77s.095-.66.286-1.012c.19-.352.374-.66.55-.924.352.088.748.161 1.188.22.44.059.85.088 1.232.088 1.79 0 3.19-.374 4.202-1.122 1.012-.748 1.738-1.782 2.178-3.102.44-1.32.66-2.845.66-4.576 0-.733-.08-1.57-.242-2.508-.161-.939-.345-1.657-.55-2.156.147-.147.491-.33 1.034-.55.543-.22 1.13-.44 1.76-.66.63-.22 1.137-.36 1.518-.418l-1.188-3.036-.704.308a8.752 8.752 0 00-2.244 1.43c-.645.572-1.041.975-1.188 1.21-.44-.939-1.078-1.643-1.914-2.112-.836-.47-1.943-.704-3.322-.704-1.555 0-2.867.345-3.938 1.034-1.07.69-1.877 1.701-2.42 3.036-.543 1.335-.814 3-.814 4.994 0 2.024.25 3.608.748 4.752a6.952 6.952 0 002.2 2.816c-.88.792-1.57 1.525-2.068 2.2-.499.675-.748 1.481-.748 2.42 0 .557.205 1.093.616 1.606.41.513 1.027.887 1.848 1.122a8.695 8.695 0 00-1.76 1.122 5.72 5.72 0 00-1.364 1.606c-.352.616-.528 1.335-.528 2.156 0 1.144.352 2.068 1.056 2.772.704.704 1.672 1.217 2.904 1.54 1.232.323 2.61.484 4.136.484zm.133-18.964c-.645 0-1.173-.147-1.584-.44a2.825 2.825 0 01-.946-1.188c-.22-.499-.367-1.093-.44-1.782-.073-.69-.11-1.43-.11-2.222 0-.939.044-1.767.132-2.486.088-.719.235-1.32.44-1.804.205-.484.52-.858.946-1.122.425-.264.96-.396 1.606-.396.675 0 1.21.132 1.606.396.396.264.69.653.88 1.166.19.513.323 1.13.396 1.848.073.719.11 1.518.11 2.398 0 .88-.037 1.672-.11 2.376-.073.704-.213 1.298-.418 1.782s-.506.85-.902 1.1c-.396.25-.931.374-1.606.374zm.22 15.268c-1.701 0-2.875-.19-3.52-.572-.645-.381-.968-.953-.968-1.716 0-.41.088-.8.264-1.166.176-.367.41-.711.704-1.034.293-.323.601-.645.924-.968l4.004.352c.939.088 1.657.235 2.156.44.499.205.843.484 1.034.836.19.352.286.792.286 1.32 0 .88-.396 1.518-1.188 1.914-.792.396-2.024.594-3.696.594zm24.752-4.18V0h-4.884v35.64h4.884zm8.549 0V15.136a9.935 9.935 0 011.65-1.122c.572-.308 1.122-.462 1.65-.462.82 0 1.364.25 1.628.748.264.499.396 1.203.396 2.112V35.64h4.708V15.048a9 9 0 00-.33-2.42c-.22-.792-.602-1.452-1.144-1.98-.543-.528-1.328-.792-2.354-.792-1.232 0-2.362.279-3.388.836a13.724 13.724 0 00-2.816 2.024v-2.508h-4.708V35.64h4.708zm20.032.352c1.818 0 3.234-.323 4.246-.968 1.012-.645 1.716-1.584 2.112-2.816.396-1.232.594-2.699.594-4.4v-1.76h-4.268v2.068c0 .85-.052 1.613-.154 2.288-.103.675-.338 1.195-.704 1.562-.367.367-.946.55-1.738.55-1.056 0-1.79-.367-2.2-1.1-.41-.733-.616-2.185-.616-4.356v-8.008c0-1.437.066-2.574.198-3.41.132-.836.403-1.43.814-1.782.41-.352.997-.528 1.76-.528.704 0 1.246.147 1.628.44.381.293.645.763.792 1.408.146.645.22 1.525.22 2.64v1.54h4.268v-1.496c0-1.76-.19-3.234-.572-4.422-.382-1.188-1.078-2.083-2.09-2.684-1.012-.601-2.442-.902-4.29-.902-2.054 0-3.616.403-4.686 1.21-1.07.807-1.797 1.965-2.178 3.476-.382 1.51-.572 3.337-.572 5.478v5.852c0 2.024.183 3.799.55 5.324.366 1.525 1.085 2.706 2.156 3.542 1.07.836 2.647 1.254 4.73 1.254zm14.092-.352v-5.236h-4.708v5.236h4.708z" id="MoldingInc."/><path d="M10.472 35.64l3.916-23.892 3.96 23.892h5.28L28.6 0h-5.368l-2.904 23.1L16.544.088H12.1L8.404 23.1 5.456 0H0l5.06 35.64h5.412zm18.84.88c2.111 0 3.747-.315 4.905-.946 1.159-.63 1.973-1.599 2.442-2.904.47-1.305.704-2.955.704-4.95V0h-6.468v27.456c0 .939-.073 1.709-.22 2.31-.146.601-.388 1.056-.726 1.364-.337.308-.814.52-1.43.638-.616.117-1.393.176-2.332.176v4.576h3.124z" id="WJ"/></g></g></svg>