<svg style="display:none;"><symbol viewBox="0 0 48 43" id="icon-car"><title>Shape</title><desc>Created with Sketch.</desc> <!-- Generator: Sketch 61.2 (89653) - https://sketch.com -->   <g id="car-Page-1" stroke="none" stroke-width="1" fill-rule="evenodd"> <g id="car-car" fill-rule="nonzero"> <path d="M5.375,16.375 L42.625,16.375 L38.625,4.375 L9.375,4.375 L5.375,16.375 Z M38.625,29.625 C39.7083333,29.625 40.646,29.229 41.438,28.437 C42.23,27.645 42.626,26.7073333 42.626,25.624 C42.626,24.5406667 42.23,23.603 41.438,22.811 C40.646,22.019 39.7083333,21.623 38.625,21.623 C37.5416667,21.623 36.604,22.019 35.812,22.811 C35.02,23.603 34.624,24.5406667 34.624,25.624 C34.624,26.7073333 35.02,27.645 35.812,28.437 C36.604,29.229 37.5416667,29.625 38.625,29.625 Z M9.375,29.625 C10.4583333,29.625 11.396,29.229 12.188,28.437 C12.98,27.645 13.376,26.7073333 13.376,25.624 C13.376,24.5406667 12.98,23.603 12.188,22.811 C11.396,22.019 10.4583333,21.623 9.375,21.623 C8.29166667,21.623 7.354,22.019 6.562,22.811 C5.77,23.603 5.374,24.5406667 5.374,25.624 C5.374,26.7073333 5.77,27.645 6.562,28.437 C7.354,29.229 8.29166667,29.625 9.375,29.625 Z M42.5,3 L48,19 L48,40.375 C48,41.125 47.75,41.75 47.25,42.25 C46.75,42.75 46.125,43 45.375,43 L42.625,43 C41.875,43 41.25,42.75 40.75,42.25 C40.25,41.75 40,41.125 40,40.375 L40,37.625 L8,37.625 L8,40.375 C8,41.125 7.75,41.75 7.25,42.25 C6.75,42.75 6.125,43 5.375,43 L2.625,43 C1.875,43 1.25,42.75 0.75,42.25 C0.25,41.75 0,41.125 0,40.375 L0,19 L5.5,3 C6,1.25 7.29166667,0.375 9.375,0.375 L38.625,0.375 C40.7083333,0.375 42,1.25 42.5,3 Z" id="car-Shape"/> </g> </g> </symbol><symbol viewBox="0 0 50 64" id="icon-hospital"><title>hospital-o</title>  <path d="M13.714 46.857v2.286c0 0.607-0.536 1.143-1.143 1.143h-2.286c-0.607 0-1.143-0.536-1.143-1.143v-2.286c0-0.607 0.536-1.143 1.143-1.143h2.286c0.607 0 1.143 0.536 1.143 1.143zM13.714 37.714v2.286c0 0.607-0.536 1.143-1.143 1.143h-2.286c-0.607 0-1.143-0.536-1.143-1.143v-2.286c0-0.607 0.536-1.143 1.143-1.143h2.286c0.607 0 1.143 0.536 1.143 1.143zM22.857 37.714v2.286c0 0.607-0.536 1.143-1.143 1.143h-2.286c-0.607 0-1.143-0.536-1.143-1.143v-2.286c0-0.607 0.536-1.143 1.143-1.143h2.286c0.607 0 1.143 0.536 1.143 1.143zM13.714 28.571v2.286c0 0.607-0.536 1.143-1.143 1.143h-2.286c-0.607 0-1.143-0.536-1.143-1.143v-2.286c0-0.607 0.536-1.143 1.143-1.143h2.286c0.607 0 1.143 0.536 1.143 1.143zM41.143 46.857v2.286c0 0.607-0.536 1.143-1.143 1.143h-2.286c-0.607 0-1.143-0.536-1.143-1.143v-2.286c0-0.607 0.536-1.143 1.143-1.143h2.286c0.607 0 1.143 0.536 1.143 1.143zM32 37.714v2.286c0 0.607-0.536 1.143-1.143 1.143h-2.286c-0.607 0-1.143-0.536-1.143-1.143v-2.286c0-0.607 0.536-1.143 1.143-1.143h2.286c0.607 0 1.143 0.536 1.143 1.143zM22.857 28.571v2.286c0 0.607-0.536 1.143-1.143 1.143h-2.286c-0.607 0-1.143-0.536-1.143-1.143v-2.286c0-0.607 0.536-1.143 1.143-1.143h2.286c0.607 0 1.143 0.536 1.143 1.143zM41.143 37.714v2.286c0 0.607-0.536 1.143-1.143 1.143h-2.286c-0.607 0-1.143-0.536-1.143-1.143v-2.286c0-0.607 0.536-1.143 1.143-1.143h2.286c0.607 0 1.143 0.536 1.143 1.143zM32 28.571v2.286c0 0.607-0.536 1.143-1.143 1.143h-2.286c-0.607 0-1.143-0.536-1.143-1.143v-2.286c0-0.607 0.536-1.143 1.143-1.143h2.286c0.607 0 1.143 0.536 1.143 1.143zM41.143 28.571v2.286c0 0.607-0.536 1.143-1.143 1.143h-2.286c-0.607 0-1.143-0.536-1.143-1.143v-2.286c0-0.607 0.536-1.143 1.143-1.143h2.286c0.607 0 1.143 0.536 1.143 1.143zM32 59.429h13.714v-41.143h-9.143v1.143c0 1.893-1.536 3.429-3.429 3.429h-16c-1.893 0-3.429-1.536-3.429-3.429v-1.143h-9.143v41.143h13.714v-8c0-0.607 0.536-1.143 1.143-1.143h11.429c0.607 0 1.143 0.536 1.143 1.143v8zM32 17.143v-11.429c0-0.607-0.536-1.143-1.143-1.143h-2.286c-0.607 0-1.143 0.536-1.143 1.143v3.429h-4.571v-3.429c0-0.607-0.536-1.143-1.143-1.143h-2.286c-0.607 0-1.143 0.536-1.143 1.143v11.429c0 0.607 0.536 1.143 1.143 1.143h2.286c0.607 0 1.143-0.536 1.143-1.143v-3.429h4.571v3.429c0 0.607 0.536 1.143 1.143 1.143h2.286c0.607 0 1.143-0.536 1.143-1.143zM50.286 16v45.714c0 1.25-1.036 2.286-2.286 2.286h-45.714c-1.25 0-2.286-1.036-2.286-2.286v-45.714c0-1.25 1.036-2.286 2.286-2.286h11.429v-10.286c0-1.893 1.536-3.429 3.429-3.429h16c1.893 0 3.429 1.536 3.429 3.429v10.286h11.429c1.25 0 2.286 1.036 2.286 2.286z"/> </symbol><symbol viewBox="0 0 48 48" id="icon-medical"><title>medical</title><desc>Created with Sketch.</desc> <!-- Generator: Sketch 61.2 (89653) - https://sketch.com -->   <g id="medical-Page-1" stroke="none" stroke-width="1" fill-rule="evenodd"> <g id="medical-medical" fill-rule="nonzero"> <path d="M40,29.375 L40,18.625 L29.375,18.625 L29.375,8 L18.625,8 L18.625,18.625 L8,18.625 L8,29.375 L18.625,29.375 L18.625,40 L29.375,40 L29.375,29.375 L40,29.375 Z M42.625,0 C44.0416667,0 45.2916667,0.541666667 46.375,1.625 C47.4583333,2.70833333 48,3.95833333 48,5.375 L48,42.625 C48,44.0416667 47.4583333,45.2916667 46.375,46.375 C45.2916667,47.4583333 44.0416667,48 42.625,48 L5.375,48 C3.95833333,48 2.70833333,47.4583333 1.625,46.375 C0.541666667,45.2916667 0,44.0416667 0,42.625 L0,5.375 C0,3.95833333 0.541666667,2.70833333 1.625,1.625 C2.70833333,0.541666667 3.95833333,0 5.375,0 L42.625,0 Z" id="medical-Shape"/> </g> </g> </symbol><symbol viewBox="0 0 64 64" id="icon-menu"><title>menu</title>  <path d="M8 16h48v5.375h-48v-5.375zM8 34.625v-5.25h48v5.25h-48zM8 48v-5.375h48v5.375h-48z"/> </symbol><symbol viewBox="0 0 480 480" id="icon-silo"><title>silo</title><path d="m448 152c.003906-2.609375-1.265625-5.050781-3.398438-6.550781l-156.601562-109.617188v-11.832031c0-13.253906-10.746094-24-24-24h-32c-13.253906 0-24 10.746094-24 24v11.832031l-156.585938 109.617188c-2.136718 1.496093-3.414062 3.941406-3.414062 6.550781v80h16v-72h88v40h16v-40h72v304h-16v-184h-.054688c.019532-2.296875-.953124-4.492188-2.671874-6.015625l-64-56c-1.460938-1.277344-3.332032-1.984375-5.273438-1.984375h-16v-16h-16v16h-16c-1.941406 0-3.8125.707031-5.273438 1.984375l-64 56c-1.71875 1.523437-2.691406 3.71875-2.671874 6.015625h-.054688v184h-32v16h480v-16h-32zm-172.945312-104 48 96h-67.054688v-96zm84.945312 376h-16v-24h16zm0-40h-16v-24h16zm0-40h-16v-24h16zm0-40h-16v-24h16zm0-40h-16v-24h16zm0-40h-16v-24h16zm0-40h-16v-24h16zm0-40h-16v-8c0-4.417969 3.582031-8 8-8s8 3.582031 8 8zm-16 296h16v24h-16zm32-280h56v304h-56zm0-16v-8c.03125-10.925781-7.34375-20.484375-17.921875-23.226562-10.574219-2.738282-21.664063 2.035156-26.941406 11.601562l-29.863281-59.71875 113.351562 79.34375zm-152-120c0-4.417969 3.582031-8 8-8h32c4.417969 0 8 3.582031 8 8v8h-48zm-29.273438 40.65625-39.671874 79.34375h-73.679688zm-21.78125 79.34375 48-96h19.054688v96zm83.054688 16h72v304h-72zm-208 128h40v80h-40zm160 80h-40v-80h40zm-56 0h-48v-80h48zm42.703125 16-45.710937 40h-41.984376l-45.710937-40zm-82.703125 56h32v24h-32zm48-4.367188 48-42v70.367188h-48zm-52.992188-203.632812h41.984376l45.710937 40h-133.40625zm-59.007812 161.601562 48 42v28.398438h-48zm0 0"/></symbol><symbol viewBox="0 0 69 56" id="icon-television"><title>Shape</title><desc>Created with Sketch.</desc> <!-- Generator: Sketch 61.2 (89653) - https://sketch.com -->   <g id="television-Page-1" stroke="none" stroke-width="1" fill-rule="evenodd"> <g id="television-television" fill-rule="nonzero"> <path d="M64,40.571 L64,6.285 C64,5.678 63.464,5.142 62.857,5.142 L5.714,5.142 C5.107,5.142 4.571,5.678 4.571,6.285 L4.571,40.571 C4.571,41.178 5.107,41.714 5.714,41.714 L62.857,41.714 C63.464,41.714 64,41.178 64,40.571 Z M68.571,6.286 L68.571,40.572 C68.571,43.715 66,46.286 62.857,46.286 L36.571,46.286 L36.571,50.857 L49.142,50.857 C49.785,50.857 50.285,51.357 50.285,52 L50.285,54.286 C50.285,54.929 49.785,55.429 49.142,55.429 L19.428,55.429 C18.785,55.429 18.285,54.929 18.285,54.286 L18.285,52 C18.285,51.357 18.785,50.857 19.428,50.857 L31.999,50.857 L31.999,46.286 L5.713,46.286 C2.57,46.286 -0.001,43.715 -0.001,40.572 L-0.001,6.286 C-0.001,3.143 2.57,0.572 5.713,0.572 L62.856,0.572 C65.999,0.572 68.57,3.143 68.57,6.286 L68.571,6.286 Z" id="television-Shape"/> </g> </g> </symbol><symbol viewBox="0 -46 512 512" id="icon-tractor"><title>tractor</title><path d="m120 180c-66.167969 0-120 53.832031-120 120s53.832031 120 120 120 120-53.832031 120-120-53.832031-120-120-120zm0 210c-49.625 0-90-40.375-90-90s40.375-90 90-90 90 40.375 90 90-40.375 90-90 90zm0 0"/><path d="m120 255c-24.8125 0-45 20.1875-45 45s20.1875 45 45 45 45-20.1875 45-45-20.1875-45-45-45zm0 60c-8.269531 0-15-6.730469-15-15s6.730469-15 15-15 15 6.730469 15 15-6.730469 15-15 15zm0 0"/><path d="m482 262.980469v-52.980469c0-33.085938-26.914062-60-60-60h-30v-75c0-8.269531 6.730469-15 15-15v-30c-24.8125 0-45 20.1875-45 45v75h-65.839844l-36-120h24.839844v-30h-240v30h30v95.738281c-25.347656 6.554688-49.171875 18.578125-69.550781 35.410157l19.101562 23.132812c26.769531-22.105469 60.667969-34.28125 95.449219-34.28125 82.710938 0 150 67.289062 150 150v45h63.257812c7.164063 42.511719 44.226563 75 88.742188 75 49.625 0 90-40.375 90-90 0-26.59375-11.597656-50.527344-30-67.019531zm-377-142.34375v-90.636719h123.839844l36 120h-45.457032c-28.5-18.945312-62.671874-30-99.382812-30-5.019531 0-10.023438.21875-15 .636719zm149.039062 59.363281h167.960938c16.542969 0 30 13.457031 30 30v35.148438c-9.386719-3.328126-19.484375-5.148438-30-5.148438h-132.296875c-7.925781-22.347656-20.140625-42.679688-35.664063-60zm43.445313 90h57.496094c-11.113281 12.398438-18.839844 27.886719-21.722657 45h-33.257812v-15c0-10.21875-.867188-20.238281-2.515625-30zm124.515625 120c-33.085938 0-60-26.914062-60-60s26.914062-60 60-60 60 26.914062 60 60-26.914062 60-60 60zm0 0"/><path d="m437 330c0 8.285156-6.714844 15-15 15s-15-6.714844-15-15 6.714844-15 15-15 15 6.714844 15 15zm0 0"/></symbol></svg>