<?xml version="1.0" encoding="UTF-8"?>
<svg width="48px" height="43px" viewBox="0 0 48 43" version="1.1" xmlns="http://www.w3.org/2000/svg" xmlns:xlink="http://www.w3.org/1999/xlink">
    <!-- Generator: Sketch 61.2 (89653) - https://sketch.com -->
    <title>Shape</title>
    <desc>Created with Sketch.</desc>
    <g id="Page-1" stroke="none" stroke-width="1" fill="none" fill-rule="evenodd">
        <g id="car" fill="#000000" fill-rule="nonzero">
            <path d="M5.375,16.375 L42.625,16.375 L38.625,4.375 L9.375,4.375 L5.375,16.375 Z M38.625,29.625 C39.7083333,29.625 40.646,29.229 41.438,28.437 C42.23,27.645 42.626,26.7073333 42.626,25.624 C42.626,24.5406667 42.23,23.603 41.438,22.811 C40.646,22.019 39.7083333,21.623 38.625,21.623 C37.5416667,21.623 36.604,22.019 35.812,22.811 C35.02,23.603 34.624,24.5406667 34.624,25.624 C34.624,26.7073333 35.02,27.645 35.812,28.437 C36.604,29.229 37.5416667,29.625 38.625,29.625 Z M9.375,29.625 C10.4583333,29.625 11.396,29.229 12.188,28.437 C12.98,27.645 13.376,26.7073333 13.376,25.624 C13.376,24.5406667 12.98,23.603 12.188,22.811 C11.396,22.019 10.4583333,21.623 9.375,21.623 C8.29166667,21.623 7.354,22.019 6.562,22.811 C5.77,23.603 5.374,24.5406667 5.374,25.624 C5.374,26.7073333 5.77,27.645 6.562,28.437 C7.354,29.229 8.29166667,29.625 9.375,29.625 Z M42.5,3 L48,19 L48,40.375 C48,41.125 47.75,41.75 47.25,42.25 C46.75,42.75 46.125,43 45.375,43 L42.625,43 C41.875,43 41.25,42.75 40.75,42.25 C40.25,41.75 40,41.125 40,40.375 L40,37.625 L8,37.625 L8,40.375 C8,41.125 7.75,41.75 7.25,42.25 C6.75,42.75 6.125,43 5.375,43 L2.625,43 C1.875,43 1.25,42.75 0.75,42.25 C0.25,41.75 0,41.125 0,40.375 L0,19 L5.5,3 C6,1.25 7.29166667,0.375 9.375,0.375 L38.625,0.375 C40.7083333,0.375 42,1.25 42.5,3 Z" id="Shape"></path>
        </g>
    </g>
</svg>