<!-- Generated by IcoMoon.io -->
<svg version="1.1" xmlns="http://www.w3.org/2000/svg" width="50" height="64" viewBox="0 0 50 64">
<title>hospital-o</title>
<path d="M13.714 46.857v2.286c0 0.607-0.536 1.143-1.143 1.143h-2.286c-0.607 0-1.143-0.536-1.143-1.143v-2.286c0-0.607 0.536-1.143 1.143-1.143h2.286c0.607 0 1.143 0.536 1.143 1.143zM13.714 37.714v2.286c0 0.607-0.536 1.143-1.143 1.143h-2.286c-0.607 0-1.143-0.536-1.143-1.143v-2.286c0-0.607 0.536-1.143 1.143-1.143h2.286c0.607 0 1.143 0.536 1.143 1.143zM22.857 37.714v2.286c0 0.607-0.536 1.143-1.143 1.143h-2.286c-0.607 0-1.143-0.536-1.143-1.143v-2.286c0-0.607 0.536-1.143 1.143-1.143h2.286c0.607 0 1.143 0.536 1.143 1.143zM13.714 28.571v2.286c0 0.607-0.536 1.143-1.143 1.143h-2.286c-0.607 0-1.143-0.536-1.143-1.143v-2.286c0-0.607 0.536-1.143 1.143-1.143h2.286c0.607 0 1.143 0.536 1.143 1.143zM41.143 46.857v2.286c0 0.607-0.536 1.143-1.143 1.143h-2.286c-0.607 0-1.143-0.536-1.143-1.143v-2.286c0-0.607 0.536-1.143 1.143-1.143h2.286c0.607 0 1.143 0.536 1.143 1.143zM32 37.714v2.286c0 0.607-0.536 1.143-1.143 1.143h-2.286c-0.607 0-1.143-0.536-1.143-1.143v-2.286c0-0.607 0.536-1.143 1.143-1.143h2.286c0.607 0 1.143 0.536 1.143 1.143zM22.857 28.571v2.286c0 0.607-0.536 1.143-1.143 1.143h-2.286c-0.607 0-1.143-0.536-1.143-1.143v-2.286c0-0.607 0.536-1.143 1.143-1.143h2.286c0.607 0 1.143 0.536 1.143 1.143zM41.143 37.714v2.286c0 0.607-0.536 1.143-1.143 1.143h-2.286c-0.607 0-1.143-0.536-1.143-1.143v-2.286c0-0.607 0.536-1.143 1.143-1.143h2.286c0.607 0 1.143 0.536 1.143 1.143zM32 28.571v2.286c0 0.607-0.536 1.143-1.143 1.143h-2.286c-0.607 0-1.143-0.536-1.143-1.143v-2.286c0-0.607 0.536-1.143 1.143-1.143h2.286c0.607 0 1.143 0.536 1.143 1.143zM41.143 28.571v2.286c0 0.607-0.536 1.143-1.143 1.143h-2.286c-0.607 0-1.143-0.536-1.143-1.143v-2.286c0-0.607 0.536-1.143 1.143-1.143h2.286c0.607 0 1.143 0.536 1.143 1.143zM32 59.429h13.714v-41.143h-9.143v1.143c0 1.893-1.536 3.429-3.429 3.429h-16c-1.893 0-3.429-1.536-3.429-3.429v-1.143h-9.143v41.143h13.714v-8c0-0.607 0.536-1.143 1.143-1.143h11.429c0.607 0 1.143 0.536 1.143 1.143v8zM32 17.143v-11.429c0-0.607-0.536-1.143-1.143-1.143h-2.286c-0.607 0-1.143 0.536-1.143 1.143v3.429h-4.571v-3.429c0-0.607-0.536-1.143-1.143-1.143h-2.286c-0.607 0-1.143 0.536-1.143 1.143v11.429c0 0.607 0.536 1.143 1.143 1.143h2.286c0.607 0 1.143-0.536 1.143-1.143v-3.429h4.571v3.429c0 0.607 0.536 1.143 1.143 1.143h2.286c0.607 0 1.143-0.536 1.143-1.143zM50.286 16v45.714c0 1.25-1.036 2.286-2.286 2.286h-45.714c-1.25 0-2.286-1.036-2.286-2.286v-45.714c0-1.25 1.036-2.286 2.286-2.286h11.429v-10.286c0-1.893 1.536-3.429 3.429-3.429h16c1.893 0 3.429 1.536 3.429 3.429v10.286h11.429c1.25 0 2.286 1.036 2.286 2.286z"></path>
</svg>
