<?xml version="1.0" encoding="UTF-8"?>
<svg width="48px" height="48px" viewBox="0 0 48 48" version="1.1" xmlns="http://www.w3.org/2000/svg" xmlns:xlink="http://www.w3.org/1999/xlink">
    <!-- Generator: Sketch 61.2 (89653) - https://sketch.com -->
    <title>medical</title>
    <desc>Created with Sketch.</desc>
    <g id="Page-1" stroke="none" stroke-width="1" fill="none" fill-rule="evenodd">
        <g id="medical" fill="#000000" fill-rule="nonzero">
            <path d="M40,29.375 L40,18.625 L29.375,18.625 L29.375,8 L18.625,8 L18.625,18.625 L8,18.625 L8,29.375 L18.625,29.375 L18.625,40 L29.375,40 L29.375,29.375 L40,29.375 Z M42.625,0 C44.0416667,0 45.2916667,0.541666667 46.375,1.625 C47.4583333,2.70833333 48,3.95833333 48,5.375 L48,42.625 C48,44.0416667 47.4583333,45.2916667 46.375,46.375 C45.2916667,47.4583333 44.0416667,48 42.625,48 L5.375,48 C3.95833333,48 2.70833333,47.4583333 1.625,46.375 C0.541666667,45.2916667 0,44.0416667 0,42.625 L0,5.375 C0,3.95833333 0.541666667,2.70833333 1.625,1.625 C2.70833333,0.541666667 3.95833333,0 5.375,0 L42.625,0 Z" id="Shape"></path>
        </g>
    </g>
</svg>