<svg height="480pt" viewBox="0 0 480 480" width="480pt" xmlns="http://www.w3.org/2000/svg"><path d="m448 152c.003906-2.609375-1.265625-5.050781-3.398438-6.550781l-156.601562-109.617188v-11.832031c0-13.253906-10.746094-24-24-24h-32c-13.253906 0-24 10.746094-24 24v11.832031l-156.585938 109.617188c-2.136718 1.496093-3.414062 3.941406-3.414062 6.550781v80h16v-72h88v40h16v-40h72v304h-16v-184h-.054688c.019532-2.296875-.953124-4.492188-2.671874-6.015625l-64-56c-1.460938-1.277344-3.332032-1.984375-5.273438-1.984375h-16v-16h-16v16h-16c-1.941406 0-3.8125.707031-5.273438 1.984375l-64 56c-1.71875 1.523437-2.691406 3.71875-2.671874 6.015625h-.054688v184h-32v16h480v-16h-32zm-172.945312-104 48 96h-67.054688v-96zm84.945312 376h-16v-24h16zm0-40h-16v-24h16zm0-40h-16v-24h16zm0-40h-16v-24h16zm0-40h-16v-24h16zm0-40h-16v-24h16zm0-40h-16v-24h16zm0-40h-16v-8c0-4.417969 3.582031-8 8-8s8 3.582031 8 8zm-16 296h16v24h-16zm32-280h56v304h-56zm0-16v-8c.03125-10.925781-7.34375-20.484375-17.921875-23.226562-10.574219-2.738282-21.664063 2.035156-26.941406 11.601562l-29.863281-59.71875 113.351562 79.34375zm-152-120c0-4.417969 3.582031-8 8-8h32c4.417969 0 8 3.582031 8 8v8h-48zm-29.273438 40.65625-39.671874 79.34375h-73.679688zm-21.78125 79.34375 48-96h19.054688v96zm83.054688 16h72v304h-72zm-208 128h40v80h-40zm160 80h-40v-80h40zm-56 0h-48v-80h48zm42.703125 16-45.710937 40h-41.984376l-45.710937-40zm-82.703125 56h32v24h-32zm48-4.367188 48-42v70.367188h-48zm-52.992188-203.632812h41.984376l45.710937 40h-133.40625zm-59.007812 161.601562 48 42v28.398438h-48zm0 0"/></svg>