<?xml version="1.0" encoding="UTF-8"?>
<svg width="69px" height="56px" viewBox="0 0 69 56" version="1.1" xmlns="http://www.w3.org/2000/svg" xmlns:xlink="http://www.w3.org/1999/xlink">
    <!-- Generator: Sketch 61.2 (89653) - https://sketch.com -->
    <title>Shape</title>
    <desc>Created with Sketch.</desc>
    <g id="Page-1" stroke="none" stroke-width="1" fill="none" fill-rule="evenodd">
        <g id="television" fill="#000000" fill-rule="nonzero">
            <path d="M64,40.571 L64,6.285 C64,5.678 63.464,5.142 62.857,5.142 L5.714,5.142 C5.107,5.142 4.571,5.678 4.571,6.285 L4.571,40.571 C4.571,41.178 5.107,41.714 5.714,41.714 L62.857,41.714 C63.464,41.714 64,41.178 64,40.571 Z M68.571,6.286 L68.571,40.572 C68.571,43.715 66,46.286 62.857,46.286 L36.571,46.286 L36.571,50.857 L49.142,50.857 C49.785,50.857 50.285,51.357 50.285,52 L50.285,54.286 C50.285,54.929 49.785,55.429 49.142,55.429 L19.428,55.429 C18.785,55.429 18.285,54.929 18.285,54.286 L18.285,52 C18.285,51.357 18.785,50.857 19.428,50.857 L31.999,50.857 L31.999,46.286 L5.713,46.286 C2.57,46.286 -0.001,43.715 -0.001,40.572 L-0.001,6.286 C-0.001,3.143 2.57,0.572 5.713,0.572 L62.856,0.572 C65.999,0.572 68.57,3.143 68.57,6.286 L68.571,6.286 Z" id="Shape"></path>
        </g>
    </g>
</svg>